<svg width="149" height="24" viewBox="0 0 149 24" fill="none" xmlns="http://www.w3.org/2000/svg">
<g clip-path="url(#clip0_628_155)">
<path d="M33.2502 1.139C34.7689 -0.379665 37.2311 -0.379668 38.7498 1.139L46.861 9.2502C48.3797 10.7689 48.3797 13.2311 46.861 14.7498L38.7498 22.861C37.2311 24.3797 34.7689 24.3797 33.2502 22.861L25.139 14.7498C23.6203 13.2311 23.6203 10.7689 25.139 9.2502L33.2502 1.139Z" fill="#047857"/>
<path d="M21.2502 1.139C22.7689 -0.379665 25.2311 -0.379668 26.7498 1.139L34.861 9.2502C36.3797 10.7689 36.3797 13.2311 34.861 14.7498L26.7498 22.861C25.2311 24.3797 22.7689 24.3797 21.2502 22.861L13.139 14.7498C11.6203 13.2311 11.6203 10.7689 13.139 9.2502L21.2502 1.139Z" fill="#065F46"/>
<path d="M9.2502 1.139C10.7689 -0.379665 13.2311 -0.379668 14.7498 1.139L22.861 9.2502C24.3797 10.7689 24.3797 13.2311 22.861 14.7498L14.7498 22.861C13.2311 24.3797 10.7689 24.3797 9.2502 22.861L1.139 14.7498C-0.379665 13.2311 -0.379668 10.7689 1.139 9.2502L9.2502 1.139Z" fill="#064E3B"/>
<path d="M57.2159 11.801V19.7355H54V6.19395H57.0738V8.49496H57.2337C57.5476 7.73678 58.048 7.13434 58.735 6.68766C59.4279 6.24097 60.2837 6.01763 61.3024 6.01763C62.2441 6.01763 63.0643 6.21746 63.7632 6.61713C64.468 7.01679 65.0128 7.59572 65.3978 8.3539C65.7887 9.11209 65.9811 10.0319 65.9752 11.1134V19.7355H62.7593V11.6071C62.7593 10.7019 62.5224 9.9937 62.0486 9.48237C61.5808 8.97103 60.9322 8.71537 60.1031 8.71537C59.5405 8.71537 59.04 8.83879 58.6018 9.08564C58.1694 9.32662 57.8289 9.67632 57.5801 10.1348C57.3373 10.5932 57.2159 11.1486 57.2159 11.801Z" fill="black"/>
<path d="M77.9416 14.0403V6.19395H81.1575V19.7355H78.0393V17.3287H77.8971C77.5892 18.0869 77.0828 18.707 76.378 19.1889C75.6792 19.6709 74.8175 19.9118 73.7929 19.9118C72.8986 19.9118 72.1079 19.7149 71.4209 19.3212C70.7398 18.9215 70.2068 18.3426 69.8219 17.5844C69.4369 16.8203 69.2444 15.8976 69.2444 14.8161V6.19395H72.4603V14.3224C72.4603 15.1805 72.6972 15.8623 73.171 16.3678C73.6448 16.8732 74.2667 17.1259 75.0366 17.1259C75.5104 17.1259 75.9694 17.0113 76.4136 16.7821C76.8577 16.5529 77.222 16.212 77.5063 15.7594C77.7965 15.301 77.9416 14.728 77.9416 14.0403Z" fill="black"/>
<path d="M96.6528 6.19395L91.7935 19.7355H88.24L83.3806 6.19395H86.8097L89.9456 16.2531H90.0878L93.2326 6.19395H96.6528Z" fill="black"/>
<path d="M104.455 20C103.087 20 101.905 19.7179 100.91 19.1537C99.9213 18.5835 99.1603 17.7783 98.6272 16.738C98.0942 15.6919 97.8277 14.4605 97.8277 13.0441C97.8277 11.6511 98.0942 10.4286 98.6272 9.37657C99.1662 8.31864 99.9183 7.4958 100.884 6.90806C101.849 6.31444 102.983 6.01763 104.286 6.01763C105.127 6.01763 105.921 6.15281 106.667 6.42317C107.419 6.68766 108.082 7.09908 108.657 7.65743C109.237 8.21579 109.693 8.92695 110.025 9.79093C110.357 10.649 110.523 11.6717 110.523 12.8589V13.8375H99.3379V11.6864H107.44C107.434 11.0751 107.301 10.5315 107.04 10.0554C106.78 9.57347 106.415 9.19438 105.947 8.91814C105.485 8.6419 104.947 8.50378 104.331 8.50378C103.673 8.50378 103.096 8.66247 102.598 8.97985C102.101 9.29135 101.713 9.70277 101.434 10.2141C101.162 10.7196 101.023 11.275 101.017 11.8804V13.7582C101.017 14.5458 101.162 15.2217 101.452 15.7859C101.742 16.3442 102.148 16.7733 102.669 17.073C103.19 17.3669 103.801 17.5139 104.499 17.5139C104.967 17.5139 105.391 17.4492 105.77 17.3199C106.149 17.1847 106.477 16.9878 106.756 16.7292C107.034 16.4706 107.244 16.1503 107.387 15.7683L110.389 16.1033C110.2 16.8908 109.838 17.5785 109.305 18.1662C108.778 18.7481 108.103 19.2007 107.28 19.5239C106.457 19.8413 105.515 20 104.455 20Z" fill="black"/>
<path d="M113.243 19.7355V6.19395H116.361V8.45088H116.503C116.752 7.66919 117.179 7.06675 117.783 6.64358C118.393 6.21453 119.089 6 119.87 6C120.048 6 120.246 6.00882 120.466 6.02645C120.691 6.0382 120.877 6.05877 121.025 6.08816V9.02393C120.889 8.97691 120.673 8.93577 120.377 8.9005C120.087 8.85936 119.805 8.83879 119.533 8.83879C118.946 8.83879 118.419 8.96516 117.951 9.21788C117.49 9.46474 117.125 9.80856 116.859 10.2494C116.592 10.6902 116.459 11.1986 116.459 11.7746V19.7355H113.243Z" fill="black"/>
<path d="M133.947 9.7733L131.015 10.0907C130.932 9.79681 130.787 9.52057 130.58 9.26197C130.378 9.00336 130.106 8.79471 129.762 8.63602C129.419 8.47733 128.998 8.39798 128.501 8.39798C127.832 8.39798 127.269 8.54198 126.813 8.82997C126.363 9.11797 126.141 9.49118 126.147 9.94962C126.141 10.3434 126.286 10.6637 126.582 10.9106C126.884 11.1574 127.382 11.3602 128.074 11.5189L130.402 12.0126C131.693 12.2888 132.653 12.7267 133.28 13.3262C133.914 13.9257 134.234 14.7103 134.24 15.6801C134.234 16.5323 133.982 17.2846 133.485 17.937C132.993 18.5835 132.309 19.089 131.432 19.4534C130.556 19.8178 129.549 20 128.412 20C126.742 20 125.397 19.6532 124.379 18.9597C123.36 18.2603 122.753 17.2876 122.558 16.0416L125.694 15.7418C125.836 16.3531 126.138 16.8144 126.6 17.1259C127.062 17.4374 127.663 17.5932 128.403 17.5932C129.167 17.5932 129.78 17.4374 130.242 17.1259C130.71 16.8144 130.944 16.4295 130.944 15.971C130.944 15.5831 130.793 15.2628 130.491 15.0101C130.195 14.7573 129.733 14.5634 129.105 14.4282L126.777 13.9433C125.469 13.673 124.5 13.2175 123.872 12.5768C123.245 11.9303 122.934 11.1134 122.94 10.1259C122.934 9.29135 123.162 8.56843 123.624 7.95718C124.092 7.34005 124.74 6.86398 125.569 6.52897C126.404 6.18808 127.367 6.01763 128.456 6.01763C130.056 6.01763 131.314 6.35558 132.232 7.03149C133.156 7.70739 133.727 8.62133 133.947 9.7733Z" fill="black"/>
<path d="M142.932 20C141.564 20 140.383 19.7179 139.388 19.1537C138.399 18.5835 137.638 17.7783 137.105 16.738C136.572 15.6919 136.305 14.4605 136.305 13.0441C136.305 11.6511 136.572 10.4286 137.105 9.37657C137.644 8.31864 138.396 7.4958 139.361 6.90806C140.327 6.31444 141.461 6.01763 142.764 6.01763C143.605 6.01763 144.398 6.15281 145.144 6.42317C145.897 6.68766 146.56 7.09908 147.134 7.65743C147.715 8.21579 148.171 8.92695 148.503 9.79093C148.834 10.649 149 11.6717 149 12.8589V13.8375H137.815V11.6864H145.917C145.911 11.0751 145.778 10.5315 145.518 10.0554C145.257 9.57347 144.893 9.19438 144.425 8.91814C143.963 8.6419 143.424 8.50378 142.808 8.50378C142.151 8.50378 141.573 8.66247 141.076 8.97985C140.578 9.29135 140.19 9.70277 139.912 10.2141C139.64 10.7196 139.5 11.275 139.494 11.8804V13.7582C139.494 14.5458 139.64 15.2217 139.93 15.7859C140.22 16.3442 140.626 16.7733 141.147 17.073C141.668 17.3669 142.278 17.5139 142.977 17.5139C143.445 17.5139 143.868 17.4492 144.247 17.3199C144.626 17.1847 144.955 16.9878 145.233 16.7292C145.512 16.4706 145.722 16.1503 145.864 15.7683L148.867 16.1033C148.677 16.8908 148.316 17.5785 147.783 18.1662C147.256 18.7481 146.581 19.2007 145.757 19.5239C144.934 19.8413 143.993 20 142.932 20Z" fill="black"/>
</g>
<defs>
<clipPath id="clip0_628_155">
<rect width="149" height="24" fill="white"/>
</clipPath>
</defs>
</svg>
